<?xml version="1.0" encoding="utf-8"?>
<!-- Generator: Adobe Illustrator 26.3.1, SVG Export Plug-In . SVG Version: 6.00 Build 0)  -->
<svg version="1.1" id="레이어_1" xmlns="http://www.w3.org/2000/svg" xmlns:xlink="http://www.w3.org/1999/xlink" x="0px"
	 y="0px" viewBox="0 0 1024 1024" style="enable-background:new 0 0 1024 1024;" xml:space="preserve">
<style type="text/css">
	.st0{fill:url(#SVGID_1_);}
</style>
<path d="M568.53,406.83c28.4,15.34,49.88,41.84,58.58,73.65l246.68-72.27C835.51,277.4,726.87,176.86,591.61,150.02
	c-29.58,43.08-46.95,93.84-46.95,148.41C544.65,336.87,553.18,373.48,568.53,406.83z"/>
<path d="M430.3,425.03c21.37-20.09,50.06-32.48,81.7-32.48c20.47,0,39.71,5.19,56.53,14.28c-15.35-33.35-23.87-69.96-23.87-108.4
	c0-54.57,17.37-105.33,46.95-148.41c-23.34-4.63-47.38-7.33-72.08-7.33c-40.96,0-80.24,6.94-117.06,19.25
	c-19.75,33.5-30.99,71.83-30.99,112.56C371.47,331.65,393.55,384.06,430.3,425.03z"/>
<path d="M162.98,416.31c-8.19,30.54-12.76,62.55-12.76,95.69c0,203.96,165.35,369.31,369.31,369.31
	c167.89,0,309.38-112.14,354.26-265.52L627.1,543.52c-13.84,50.65-60.06,87.93-115.1,87.93c-65.97,0-119.44-53.48-119.44-119.44
	c0-17.82,3.99-34.66,11.01-49.82C319.77,451.35,239.24,435.94,162.98,416.31z"/>
<linearGradient id="SVGID_1_" gradientUnits="userSpaceOnUse" x1="575.7205" y1="231.0267" x2="519.0984" y2="409.386">
	<stop  offset="0" style="stop-color:#41B1E6"/>
	<stop  offset="1" style="stop-color:#695BA5"/>
</linearGradient>
<path class="st0" d="M430.3,425.03c21.37-20.09,50.06-32.48,81.7-32.48c20.47,0,39.71,5.19,56.53,14.28
	c28.14,15.2,49.44,41.37,58.29,72.79c1.02,0.03,2.06,0.02,3.08,0.04l243.89-71.45C835.51,277.4,726.87,176.86,591.61,150.02
	c-23.34-4.63-47.38-7.33-72.08-7.33c-40.96,0-80.24,6.94-117.06,19.25c-116.73,39.03-207.37,134.69-239.48,254.37
	c76.26,19.62,156.78,35.04,240.58,45.87C410.06,448.13,419.15,435.51,430.3,425.03z"/>
</svg>
