<?xml version="1.0" encoding="utf-8"?>
<!-- Generator: Adobe Illustrator 26.3.1, SVG Export Plug-In . SVG Version: 6.00 Build 0)  -->
<svg version="1.1" id="레이어_1" xmlns="http://www.w3.org/2000/svg" xmlns:xlink="http://www.w3.org/1999/xlink" x="0px"
	 y="0px" viewBox="0 0 1024 200" style="enable-background:new 0 0 1024 200;" xml:space="preserve">
<style type="text/css">
	.st0{fill:#231815;}
	.st1{fill:url(#SVGID_1_);}
	.st2{fill:url(#SVGID_00000044173179413609140480000003052768976186786472_);}
	.st3{fill:none;}
	.st4{fill:url(#SVGID_00000031201181399578700570000016175533811188536459_);}
	.st5{fill:url(#SVGID_00000023988614547000790100000018178778615794450348_);}
</style>
<path d="M775.51,60.45h0.01c0-0.08-0.01-0.15-0.01-0.23V60.45z"/>
<path class="st0" d="M358.36,38.47c-19.24,0-36.51,8.41-48.35,21.75c-10.13,11.41-16.28,26.43-16.28,42.88v64.63h43.59V103.1h0.14
	c0-11.54,9.36-20.9,20.9-20.9c11.54,0,20.9,9.36,20.9,20.9h-0.06v64.63h43.79V103.1C422.99,67.41,394.05,38.47,358.36,38.47z"/>
<path class="st0" d="M487.62,38.47c-35.69,0-64.63,28.94-64.63,64.63v64.63h43.59V103.1h0.14c0-11.54,9.36-20.9,20.9-20.9
	c11.54,0,20.9,9.36,20.9,20.9h-0.06v64.63h43.79V103.1C552.25,67.41,523.31,38.47,487.62,38.47z"/>
<path d="M732.92,124c-11.54,0-20.9-9.36-20.9-20.9s9.36-20.9,20.9-20.9c9.63,0,17.72,6.52,20.14,15.39l43.17-12.65
	c-7.85-26.84-32.61-46.47-62-46.47c-35.69,0-64.63,28.94-64.63,64.63c0,35.69,28.94,64.63,64.63,64.63c29.38,0,54.14-19.62,62-46.47
	l-43.17-12.65C750.64,117.48,742.55,124,732.92,124z"/>
<path d="M925.38,79.73"/>
<path d="M615.56,124c-9.39,0-17.34-6.2-19.97-14.72l40.11-11.72c0,0.01,0.01,0.02,0.01,0.03l43.17-12.65
	c-7.85-26.84-32.61-46.47-62-46.47c-35.69,0-64.63,28.94-64.63,64.63c0,35.69,28.94,64.63,64.63,64.63c29.38,0,54.14-19.62,62-46.47
	l-43.17-12.65C633.28,117.48,625.19,124,615.56,124z"/>
<path d="M116.03,84.69c4.97,2.68,8.73,7.32,10.25,12.89l43.17-12.65c-6.7-22.89-25.71-40.49-49.38-45.18
	c-5.18,7.54-8.22,16.42-8.22,25.97C111.85,72.45,113.34,78.86,116.03,84.69z"/>
<path d="M91.84,87.88c3.74-3.52,8.76-5.68,14.3-5.68c3.58,0,6.95,0.91,9.89,2.5c-2.69-5.84-4.18-12.24-4.18-18.97
	c0-9.55,3.04-18.43,8.22-25.97c-4.08-0.81-8.29-1.28-12.61-1.28c-7.17,0-14.04,1.21-20.49,3.37c-3.46,5.86-5.42,12.57-5.42,19.7
	C81.54,71.54,85.41,80.71,91.84,87.88z"/>
<path d="M980.18,159.82c5.79-6.1,8.45-14.93,6.24-23.69c-3.43-13.6-17.23-21.85-30.83-18.42c-3.75,0.94-7.09,2.68-9.9,4.99
	c3.05-12.95,17-20.87,17-20.87s-27.5,4.51-28.39,29.84C952.71,137.45,968.58,147.28,980.18,159.82z"/>
<path d="M950.19,164.91l0.28,0.14c0.22,0.11,0.44,0.22,0.67,0.33l0.13,0.06c0,0,0.02,0,0.04,0.01c5.05,2.3,10.89,2.97,16.69,1.51
	c4.84-1.22,8.98-3.77,12.18-7.14c-11.6-12.54-27.47-22.37-45.87-28.16c-0.01,0.34-0.07,0.65-0.07,1
	C934.08,158.91,950.19,164.91,950.19,164.91z"/>
<linearGradient id="SVGID_1_" gradientUnits="userSpaceOnUse" x1="960.4556" y1="140.4442" x2="935.8376" y2="181.0423">
	<stop  offset="0" style="stop-color:#D6A4C1"/>
	<stop  offset="1" style="stop-color:#7C60A6"/>
</linearGradient>
<path class="st1" d="M950.19,164.91l0.28,0.14c0.22,0.11,0.44,0.22,0.67,0.33l0.13,0.06c0,0,0.02,0,0.04,0.01
	c5.05,2.3,10.89,2.97,16.69,1.51c4.84-1.22,8.98-3.77,12.18-7.14c-11.6-12.54-27.47-22.37-45.87-28.16c-0.01,0.34-0.07,0.65-0.07,1
	C934.08,158.91,950.19,164.91,950.19,164.91z"/>
<path d="M920.3,128.15c0.97-2.28,1.85-4.6,2.55-7l-43.17-12.65c-2.42,8.86-10.51,15.39-20.14,15.39c-1.09,0-2.15-0.11-3.19-0.27
	c-6.63-1.02-12.19-5.16-15.22-10.87c-0.92-1.74-1.32-3.7-1.32-5.66V96.13v-3.67h43.58V48.88h-43.58v-6.95v-3.57h-43.58v64.63
	c0,0.08,0.01,0.15,0.01,0.23h-0.01c0,19.91,9.01,37.69,23.17,49.55c19.1-16.53,46.4-26.89,76.73-26.89
	C904.46,125.87,912.54,126.68,920.3,128.15z"/>
<path d="M860.86,167.61c26.75,0,49.63-16.29,59.44-39.46c-7.76-1.47-15.85-2.28-24.17-2.28c-30.33,0-57.63,10.36-76.73,26.89
	c11.22,9.4,25.68,15.08,41.46,15.08V167.61z"/>
<linearGradient id="SVGID_00000173880752507142485200000005502215840201182849_" gradientUnits="userSpaceOnUse" x1="916.4915" y1="103.2997" x2="840.0461" y2="171.1072">
	<stop  offset="0" style="stop-color:#D6A4C1"/>
	<stop  offset="1" style="stop-color:#7C60A6"/>
</linearGradient>
<path style="fill:url(#SVGID_00000173880752507142485200000005502215840201182849_);" d="M860.86,167.61
	c26.75,0,49.63-16.29,59.44-39.46c-7.76-1.47-15.85-2.28-24.17-2.28c-30.33,0-57.63,10.36-76.73,26.89
	c11.22,9.4,25.68,15.08,41.46,15.08V167.61z"/>
<path class="st3" d="M229.1,124c11.54,0,20.9-9.36,20.9-20.9c0-8.5-5.08-15.79-12.36-19.06c-8.03,2.31-16.34,4.36-24.93,6.11
	c-2.82,3.56-4.52,8.06-4.52,12.95C208.2,114.64,217.56,124,229.1,124z"/>
<path d="M250,103.1c0,11.54-9.36,20.9-20.9,20.9c-11.54,0-20.9-9.36-20.9-20.9c0-4.9,1.7-9.39,4.52-12.95
	c-15.23,3.11-31.28,5.28-47.91,6.44c-0.21,2.14-0.33,4.31-0.33,6.51c0,35.69,28.94,64.63,64.63,64.63
	c35.69,0,64.63-28.94,64.63-64.63c0-13.43-4.1-25.91-11.12-36.24c-13.53,6.72-28.65,12.49-44.97,17.18
	C244.92,87.3,250,94.6,250,103.1z"/>
<linearGradient id="SVGID_00000015313308908516591750000009212022902090911924_" gradientUnits="userSpaceOnUse" x1="251.4612" y1="50.531" x2="184.3456" y2="87.3067">
	<stop  offset="0" style="stop-color:#41B1E6"/>
	<stop  offset="1" style="stop-color:#7C60A6"/>
</linearGradient>
<path style="fill:url(#SVGID_00000015313308908516591750000009212022902090911924_);" d="M229.1,38.47
	c-33.49,0-61.03,25.48-64.3,58.12c16.63-1.16,32.68-3.33,47.91-6.44c3.83-4.84,9.74-7.95,16.39-7.95c3.05,0,5.93,0.67,8.54,1.84
	c16.32-4.69,31.43-10.46,44.97-17.18C270.99,49.73,251.36,38.47,229.1,38.47z"/>
<path d="M45.06,86.35c-1.43,5.34-2.23,10.95-2.23,16.75c0,35.69,28.94,64.63,64.63,64.63c29.38,0,54.14-19.62,62-46.47l-43.17-12.65
	c-2.42,8.86-10.51,15.39-20.14,15.39c-11.54,0-20.9-9.36-20.9-20.9c0-3.12,0.7-6.07,1.93-8.72C72.5,92.49,58.4,89.79,45.06,86.35z"
	/>
<path d="M126.28,97.58l0.49-0.14c-0.18,0-0.36,0-0.54-0.01C126.24,97.48,126.27,97.53,126.28,97.58z"/>
<linearGradient id="SVGID_00000085945227875531840010000012131406114947613603_" gradientUnits="userSpaceOnUse" x1="72.9697" y1="61.6592" x2="149.7389" y2="75.9098">
	<stop  offset="0" style="stop-color:#41B1E6"/>
	<stop  offset="1" style="stop-color:#695BA5"/>
</linearGradient>
<path style="fill:url(#SVGID_00000085945227875531840010000012131406114947613603_);" d="M91.84,87.88
	c3.74-3.52,8.76-5.68,14.3-5.68c3.58,0,6.95,0.91,9.89,2.5c4.92,2.66,8.65,7.24,10.2,12.74c0.18,0,0.36,0,0.54,0.01l42.68-12.5
	c-6.7-22.89-25.71-40.49-49.38-45.18c-4.08-0.81-8.29-1.28-12.61-1.28c-7.17,0-14.04,1.21-20.49,3.37
	c-20.43,6.83-36.29,23.57-41.91,44.51c13.34,3.43,27.44,6.13,42.1,8.03C88.3,91.92,89.89,89.71,91.84,87.88z"/>
</svg>
